# xmcd CD database file
#
# Track frame offsets:
#	150
#	14675
#	30150
#	47475
#	61000
#	74900
#	89050
#	103562
#	118475
#	131575
#	141650
#	154225
#	171187
#	184987
#	200600
#	216775
#
# Disc length: 3172 seconds
#
# Revision: 2
# Processed by: cddbd v1.5.2PL0 Copyright (c) Steve Scherf et al.
# Submitted via: CDex 1.51
#
DISCID=f90c6210
DTITLE=other - 港劇經典
DYEAR=1900
DGENRE=Other
TTITLE0=上海灘
TTITLE1=萬般情
TTITLE2=小李飛刀
TTITLE3=英雄出少年
TTITLE4=天蠶變
TTITLE5=萬水千山縱橫
TTITLE6=兩望煙水裡
TTITLE7=桃花開
TTITLE8=鐵血丹心
TTITLE9=鐵血丹心之滿江紅
TTITLE10=華山論劍之世間始終你好
TTITLE11=華山論劍之千愁記舊情
TTITLE12=東邪西毒之一生有意義
TTITLE13=東邪西毒之肯去承擔愛
TTITLE14=情愛幾多哀
TTITLE15=武則天
EXTD=
EXTT0=
EXTT1=
EXTT2=
EXTT3=
EXTT4=
EXTT5=
EXTT6=
EXTT7=
EXTT8=
EXTT9=
EXTT10=
EXTT11=
EXTT12=
EXTT13=
EXTT14=
EXTT15=
PLAYORDER=
